#!OML:ASF F:\VICON\USERDATA\INSTALL\rory3\rory3.ASF
:FULLY-SPECIFIED
:DEGREES
2568
root 0.67736 21.9748 1.57131 -626.237 -103.174 624.194
lowerback 7.08863 4.33609 -4.6689
upperback -2.03684 5.72326 8.44709
thorax -7.56697 3.21835 11.0359
lowerneck -20.9322 4.8443 -13.2707
upperneck 2.39989 8.68932 9.84708
head 2.98861 4.66586 5.85116
rclavicle -5.64548e-014 -2.22639e-014
rhumerus -12.633 11.1765 -34.8647
rradius 78.594
rwrist 3.53415
rhand -25.5072 4.62432
rfingers 7.12502
rthumb 1.0217 -25.353
lclavicle -5.64548e-014 -2.22639e-014
lhumerus 81.9601 45.4535 51.0357
lradius 13.1937
lwrist -44.9158
lhand -18.6165 24.2169
lfingers 7.12502
lthumb 7.67534 54.0576
rfemur -10.4898 -8.06443 -4.28614
rtibia 44.715
rfoot -6.85396 -17.9361
rtoes 28.5284
lfemur -10.6116 -2.2492 -32.5714
ltibia 21.6939
lfoot 8.31537 8.93378
ltoes -15.3124
2569
root 0.67041 21.8755 1.60446 -629.538 -103.121 627.688
lowerback 7.07538 4.42188 -4.72626
upperback -1.96357 5.82782 8.35444
thorax -7.49837 3.26523 10.9454
lowerneck -20.9875 4.86367 -13.4558
upperneck 2.20851 8.7458 10.1112
head 2.91275 4.71012 5.96323
rclavicle -5.84427e-014 3.18055e-014
rhumerus -14.3987 11.142 -36.0614
rradius 76.7781
rwrist 3.36765
rhand -25.6518 4.12946
rfingers 7.12502
rthumb 0.882003 -25.8485
lclavicle -5.84427e-014 3.18055e-014
lhumerus 80.5238 45.7049 49.3385
lradius 13.1782
lwrist -43.2373
lhand -19.4537 24.4615
lfingers 7.12502
lthumb 6.86723 54.3301
rfemur -10.8157 -7.33732 -3.8614
rtibia 44.3183
rfoot -6.40335 -18.7708
rtoes 28.4634
lfemur -11.1016 -2.98494 -31.8169
ltibia 21.8332
lfoot 8.38465 9.11727
ltoes -15.4833
2570
root 0.667306 21.7625 1.62571 -633.062 -103.064 631.574
lowerback 7.02439 4.55465 -4.81358
upperback -2.02545 5.99917 8.24043
thorax -7.57202 3.35691 10.8387
lowerneck -21.1102 5.1349 -13.062
upperneck 2.53343 9.01004 10.1325
head 3.01497 4.84471 5.93744
rclavicle 7.15625e-014 1.145e-013
rhumerus -16.2938 11.0563 -37.2887
rradius 74.8803
rwrist 3.3738
rhand -25.625 4.01617
rfingers 7.12502
rthumb 0.907925 -25.9616
lclavicle 7.15625e-014 1.145e-013
lhumerus 83.0341 45.5326 52.4344
lradius 12.63
lwrist -44.9716
lhand -20.5972 25.7168
lfingers 7.12502
lthumb 5.7633 55.6184
rfemur -11.3343 -6.38639 -3.27534
rtibia 43.9083
rfoot -6.1423 -19.4682
rtoes 28.0903
lfemur -11.8129 -3.40474 -30.9351
ltibia 22.0968
lfoot 8.50454 8.95449
ltoes -15.899
2571
root 0.671947 21.6398 1.64341 -636.018 -103.039 635.083
lowerback 6.93011 4.66328 -4.91146
upperback -2.19577 6.14098 8.09827
thorax -7.72955 3.44092 10.713
lowerneck -21.1061 5.23812 -12.9683
upperneck 2.62152 9.1042 10.3379
head 3.02598 4.90443 5.99588
rclavicle 7.15625e-015 1.59028e-014
rhumerus -18.168 10.7842 -38.558
rradius 72.9424
rwrist 3.40764
rhand -25.4666 3.64899
rfingers 7.12502
rthumb 1.06088 -26.3281
lclavicle 7.15625e-015 1.59028e-014
lhumerus 89.246 44.6167 60.9241
lradius 12.2538
lwrist -50.484
lhand -20.4517 25.7438
lfingers 7.12502
lthumb 5.90368 55.6416
rfemur -12.0216 -5.62468 -2.63189
rtibia 43.4568
rfoot -5.88246 -19.8982
rtoes 28.2947
lfemur -12.8623 -3.43661 -29.986
ltibia 22.5583
lfoot 8.75191 7.99196
ltoes -17.245
2572
root 0.675144 21.4957 1.67107 -638.997 -103.162 638.523
lowerback 6.85254 4.74529 -5.03116
upperback -2.28464 6.24074 7.93596
thorax -7.79735 3.49829 10.5838
lowerneck -21.1896 5.26896 -13.0686
upperneck 2.58469 9.16102 10.5448
head 3.00694 4.94546 6.08269
rclavicle -1.31198e-014 -9.54166e-015
rhumerus -19.7457 10.4187 -39.7535
rradius 70.9028
rwrist 3.24681
rhand -25.338 3.51417
rfingers 7.12502
rthumb 1.18509 -26.4623
lclavicle -1.31198e-014 -9.54166e-015
lhumerus 95.0503 43.2157 69.3147
lradius 12.1502
lwrist -56.0914
lhand -21.8645 27.8447
lfingers 7.12502
lthumb 4.53962 57.776
rfemur -12.6068 -5.39991 -2.24765
rtibia 42.9848
rfoot -4.76322 -19.669
rtoes 28.107
lfemur -13.8257 -3.77276 -29.1481
ltibia 23.1614
lfoot 8.85169 7.03713
ltoes -19.1945
2573
root 0.676324 21.3408 1.70623 -642.551 -103.04 642.11
lowerback 7.14688 4.73252 -4.79862
upperback -2.22873 6.23795 8.0125
thorax -7.88816 3.48511 10.5175
lowerneck -21.2352 5.30626 -13.7505
upperneck 2.45615 9.35363 10.9884
head 2.89922 5.06259 6.33559
rclavicle -3.37934e-014 -4.13472e-014
rhumerus -20.8268 10.415 -40.6603
rradius 68.7769
rwrist 2.82403
rhand -25.0139 3.49794
rfingers 7.12502
rthumb 1.49809 -26.4765
lclavicle -3.37934e-014 -4.13472e-014
lhumerus 99.574 41.9119 76.4162
lradius 12.1568
lwrist -60.8746
lhand -22.1386 28.7295
lfingers 7.12502
lthumb 4.27498 58.6664
rfemur -12.7017 -5.02904 -1.5855
rtibia 42.4937
rfoot -2.96928 -19.0375
rtoes 26.5416
lfemur -14.2888 -4.1268 -28.0328
ltibia 23.8421
lfoot 8.7206 6.32342
ltoes -20.2348
2574
root 0.677069 21.1792 1.7419 -646.979 -102.844 646.376
lowerback 7.61155 4.58976 -4.54639
upperback -1.98978 6.05717 8.25648
thorax -7.85704 3.37504 10.6568
lowerneck -21.3306 5.39576 -14.6779
upperneck 1.97894 9.68194 11.4623
head 2.65823 5.24933 6.63112
rclavicle 6.75868e-015 6.99722e-014
rhumerus -21.2177 10.6115 -41.5684
rradius 66.5659
rwrist 2.20839
rhand -24.7344 3.4659
rfingers 7.12502
rthumb 1.76807 -26.5065
lclavicle 6.75868e-015 6.99722e-014
lhumerus 102.84 41.3638 81.584
lradius 12.1898
lwrist -64.4536
lhand -22.7564 28.9296
lfingers 7.12502
lthumb 3.67836 58.8776
rfemur -12.6554 -4.4534 -0.728328
rtibia 42.0088
rfoot -0.241266 -18.1755
rtoes 22.2301
lfemur -14.5154 -4.10573 -26.7667
ltibia 24.621
lfoot 8.54132 5.53754
ltoes -20.6745
2575
root 0.678938 20.9989 1.77261 -651.478 -103.078 650.876
lowerback 7.90114 4.57143 -4.72056
upperback -1.73241 6.00227 8.27016
thorax -7.7523 3.3432 10.7726
lowerneck -21.7062 5.57786 -14.777
upperneck 1.73184 9.9803 11.4929
head 2.59008 5.4036 6.67643
rclavicle -4.69132e-014 -6.67916e-014
rhumerus -21.7962 10.2949 -42.7075
rradius 64.4304
rwrist 1.44057
rhand -24.3968 3.39619
rfingers 7.12502
rthumb 2.09411 -26.5733
lclavicle -4.69132e-014 -6.67916e-014
lhumerus 105.452 40.6993 85.497
lradius 12.3603
lwrist -66.8731
lhand -24.1102 29.0171
lfingers 7.12502
lthumb 2.37094 58.9837
rfemur -12.913 -4.09081 -0.231307
rtibia 41.5549
rfoot 2.97117 -16.9383
rtoes 17.9278
lfemur -14.9101 -4.16676 -25.8082
ltibia 25.4957
lfoot 8.43527 4.97514
ltoes -20.6118
2576
root 0.684017 20.8095 1.79999 -655.299 -103.332 654.877
lowerback 8.10282 4.65207 -4.81701
upperback -1.61057 6.09189 8.17301
thorax -7.75455 3.38507 10.6912
lowerneck -22.053 5.68486 -14.7654
upperneck 1.66919 10.1439 11.5975
head 2.59466 5.4954 6.72916
rclavicle 1.27222e-014 -3.18055e-015
rhumerus -22.7184 9.62786 -43.841
rradius 62.2906
rwrist 0.389046
rhand -23.9091 3.24227
rfingers 7.12502
rthumb 2.56516 -26.7221
lclavicle 1.27222e-014 -3.18055e-015
lhumerus 107.863 39.5116 89.1613
lradius 12.5595
lwrist -68.9762
lhand -24.6434 29.4823
lfingers 7.12502
lthumb 1.85601 59.454
rfemur -13.3347 -4.03202 0.363926
rtibia 41.162
rfoot 5.94753 -15.6571
rtoes 16.0955
lfemur -15.5396 -4.3941 -24.7729
ltibia 26.4575
lfoot 8.49994 4.35087
ltoes -20.4821
2577
root 0.690012 20.6129 1.82588 -658.451 -103.494 658.272
lowerback 8.3365 4.70028 -4.80713
upperback -1.64465 6.15434 8.08972
thorax -7.92883 3.42 10.565
lowerneck -22.1701 5.68765 -14.9703
upperneck 1.57378 10.1916 11.8977
head 2.55198 5.53798 6.86176
rclavicle -4.79071e-014 -6.99722e-014
rhumerus -23.7695 9.03298 -44.8297
rradius 60.1866
rwrist -0.765478
rhand -23.0624 2.74934
rfingers 7.12502
rthumb 3.38284 -27.2036
lclavicle -4.79071e-014 -6.99722e-014
lhumerus 109.208 38.652 91.3495
lradius 12.6653
lwrist -69.9636
lhand -24.5848 30.3097
lfingers 7.12502
lthumb 1.91253 60.2809
rfemur -13.7473 -3.90877 1.11794
rtibia 40.8557
rfoot 8.10315 -14.982
rtoes 16.1082
lfemur -16.2763 -4.56825 -23.632
ltibia 27.5313
lfoot 8.69206 3.69273
ltoes -19.2486
2578
root 0.699199 20.4025 1.85366 -661.773 -103.74 661.815
lowerback 8.63171 4.78873 -4.79944
upperback -1.65627 6.2686 7.9809
thorax -8.12254 3.47951 10.3971
lowerneck -22.1941 5.71231 -14.75
upperneck 1.32999 10.17 11.866
head 2.49716 5.52735 6.8103
rclavicle -8.62725e-014 -6.67916e-014
rhumerus -24.7808 8.38783 -45.6931
rradius 58.1415
rwrist -1.69337
rhand -22.2688 2.11864
rfingers 7.12502
rthumb 4.14918 -27.8207
lclavicle -8.62725e-014 -6.67916e-014
lhumerus 109.48 38.4467 91.7317
lradius 12.778
lwrist -69.0486
lhand -24.6896 30.0549
lfingers 7.12502
lthumb 1.81136 60.027
rfemur -14.1604 -3.88683 1.87593
rtibia 40.6355
rfoot 10.0659 -14.5636
rtoes 15.9768
lfemur -17.0144 -4.41342 -22.5496
ltibia 28.7453
lfoot 9.17633 2.62014
ltoes -18.0219
